<svg id="g12" xmlns="http://www.w3.org/2000/svg" width="198.599" height="59.672" viewBox="0 0 198.599 59.672">
  <path id="path14" d="M41.406-67.141a14.2,14.2,0,0,0-11.3,5.16c-1.437-3.265-5.029-5.16-9.731-5.16-4.376,0-8.163,1.371-10.254,3.657l-.849-2.09a1.06,1.06,0,0,0-1.044-.653H.914A.826.826,0,0,0,0-65.312v34.091a.826.826,0,0,0,.914.914H12.539a.826.826,0,0,0,.914-.914V-51.27a4.379,4.379,0,0,1,4.31-3.657c1.959,0,3.2,1.306,3.2,4.114v19.592a.826.826,0,0,0,.914.914H33.5a.826.826,0,0,0,.914-.914V-51.27a4.212,4.212,0,0,1,4.245-3.657c1.959,0,3.07,1.5,3.2,4.114v19.592a.826.826,0,0,0,.914.914H54.4a.826.826,0,0,0,.914-.914V-52.772c0-9.013-5.159-14.368-13.911-14.368" transform="translate(0 80.594)" fill="#6930c3"/>
  <path id="path16" d="M106-40.625a4.84,4.84,0,0,1-3.592,1.633c-1.633,0-2.743-.915-2.743-2.351s1.11-2.351,2.743-2.351A4.837,4.837,0,0,1,106-42.062Zm-3.069-26.516a27.394,27.394,0,0,0-14.172,3.723,1.024,1.024,0,0,0-.326,1.241l3.722,7.837c.261.457.653.718.98.523a17.112,17.112,0,0,1,7.837-2.09c3,0,5.029,1.829,5.029,4.637v2.743c-1.306-2.09-4.7-3.462-8.49-3.462-7.379,0-12.343,4.245-12.408,10.646-.066,7.184,4.9,12.016,12.408,12.016,4.768,0,9.078-1.436,11.233-3.723l.458,1.763a1.064,1.064,0,0,0,1.045.98h8.229a1,1,0,0,0,.979-.98V-48.2c0-13-5.224-18.94-16.523-18.94" transform="translate(-26.519 80.594)" fill="#6930c3"/>
  <path id="path18" d="M154.305-82.415H142.811a1,1,0,0,0-.979.914v45.454a1,1,0,0,0,.979.98h11.494a1,1,0,0,0,.98-.98V-81.5a.994.994,0,0,0-.98-.914" transform="translate(-44.198 85.354)" fill="#6930c3"/>
  <path id="path20" d="M188.729-69.954h-4.9v-8.229a.949.949,0,0,0-.979-.914l-11.5,1.111a1.048,1.048,0,0,0-.979.914v7.119h-3.723a.949.949,0,0,0-.914.98v6.335a.934.934,0,0,0,.914.914h3.723v26.711a1,1,0,0,0,.979.98h11.5a1,1,0,0,0,.979-.98V-61.725h4.18a1.053,1.053,0,0,0,.979-.979l.719-6.335a.91.91,0,0,0-.979-.914" transform="translate(-51.648 84.322)" fill="#6930c3"/>
  <path id="path22" d="M211.536-86.684c-4.31,0-7.183,2.678-7.183,6.727,0,3.854,2.873,6.465,7.183,6.465s7.184-2.612,7.184-6.465c0-4.049-2.873-6.727-7.184-6.727" transform="translate(-63.68 86.684)" fill="#6930c3"/>
  <path id="path24" d="M217.585-65.812H206.091a1,1,0,0,0-.979.914v34.025a1,1,0,0,0,.979.98h11.494a1,1,0,0,0,.98-.98V-64.9a1,1,0,0,0-.98-.914" transform="translate(-63.917 80.18)" fill="#6930c3"/>
  <path id="path26" d="M252.188-65.812h-1.7a11.115,11.115,0,0,0-8.621,3.918l-.979-2.874c-.2-.523-.522-.98-1.045-.98h-7.379a1,1,0,0,0-.979.915v33.96a1,1,0,0,0,.979.98h11.494a1,1,0,0,0,.979-.98V-52.75c.85-1.632,3.07-2.743,5.552-2.743h1.7a.893.893,0,0,0,.915-.914V-64.9a.893.893,0,0,0-.915-.914" transform="translate(-72.136 80.18)" fill="#6930c3"/>
  <path id="path28" d="M280.863-65.812H269.37a1,1,0,0,0-.98.914v34.025a1,1,0,0,0,.98.98h11.493a1,1,0,0,0,.98-.98V-64.9a1,1,0,0,0-.98-.914" transform="translate(-83.636 80.18)" fill="#6930c3"/>
  <path id="path30" d="M274.815-73.492c4.311,0,7.183-2.612,7.183-6.465,0-4.049-2.872-6.727-7.183-6.727s-7.184,2.678-7.184,6.727c0,3.854,2.874,6.465,7.184,6.465" transform="translate(-83.399 86.684)" fill="#6930c3"/>
  <path id="path32" d="M235.67-2.954a1.871,1.871,0,0,0,1.61-.734l4.932-4.854c.515-.653-.022-.939-1.321-.939H141.832" transform="translate(-44.198 62.626)" fill="#6930c3"/>
</svg>
