<svg xmlns="http://www.w3.org/2000/svg" width="24" height="24" viewBox="0 0 24 24">
  <path id="Google" d="M23.769,9.752q-5.762,0-11.523,0c0,1.561,0,3.123,0,4.683h6.673a5.63,5.63,0,0,1-2.452,3.707,7.083,7.083,0,0,1-2.7,1.043,8.152,8.152,0,0,1-2.922-.009,7.27,7.27,0,0,1-2.726-1.153,7.471,7.471,0,0,1-2.807-3.685,7.13,7.13,0,0,1,0-4.673A7.423,7.423,0,0,1,7.1,6.835a7.3,7.3,0,0,1,7.252-1.847,6.667,6.667,0,0,1,2.64,1.52q1.129-1.1,2.253-2.206c.394-.4.808-.774,1.19-1.18A11.892,11.892,0,0,0,16.491.729,12.622,12.622,0,0,0,8.242.658,12.225,12.225,0,0,0,1.305,6.613a11.773,11.773,0,0,0,0,10.775A12.143,12.143,0,0,0,4.631,21.4a12.285,12.285,0,0,0,4.45,2.2,13.346,13.346,0,0,0,6.265.066A11.139,11.139,0,0,0,20.359,21.1a10.863,10.863,0,0,0,3.1-4.982A13.827,13.827,0,0,0,23.769,9.752Z" transform="translate(0 0)" fill="#2d2d2f"/>
</svg>
