<svg xmlns="http://www.w3.org/2000/svg" width="22" height="22" viewBox="0 0 22 22">
  <path id="Grid_3" data-name="Grid #3" d="M20,22H14a2,2,0,0,1-2-2V14a2,2,0,0,1,2-2h6a2,2,0,0,1,2,2v6A2,2,0,0,1,20,22Zm-6-8v6h6V14ZM8,22H2a2,2,0,0,1-2-2V14a2,2,0,0,1,2-2H8a2,2,0,0,1,2,2v6A2,2,0,0,1,8,22ZM2,14v6H8V14Zm18-4H14a2,2,0,0,1-2-2V2a2,2,0,0,1,2-2h6a2,2,0,0,1,2,2V8A2,2,0,0,1,20,10ZM14,2V8h6V2ZM8,10H2A2,2,0,0,1,0,8V2A2,2,0,0,1,2,0H8a2,2,0,0,1,2,2V8A2,2,0,0,1,8,10ZM2,2V8H8V2Z" transform="translate(0 0)" fill="#2d2d2f"/>
</svg>
