<svg xmlns="http://www.w3.org/2000/svg" width="24" height="20" viewBox="0 0 24 20">
  <path id="Twitter" d="M11.653,5.32l.052.865-.867-.106a14.059,14.059,0,0,1-8.254-4.1L1.439.836l-.295.847A5.127,5.127,0,0,0,2.22,6.909c.694.741.538.847-.659.406a2.03,2.03,0,0,0-.815-.194A6.368,6.368,0,0,0,1.37,9.487a5.62,5.62,0,0,0,2.376,2.26l.85.406L3.59,12.17c-.971,0-1.006.018-.9.388a5.258,5.258,0,0,0,3.243,2.9l1.075.371-.936.565A9.7,9.7,0,0,1,1.422,17.7,5.094,5.094,0,0,0,0,17.837a13.144,13.144,0,0,0,3.347,1.554,14.54,14.54,0,0,0,11.376-1.306,15.318,15.318,0,0,0,5.775-6.85,18.34,18.34,0,0,0,1.179-5.3c0-.812.052-.918,1.023-1.889A11.5,11.5,0,0,0,23.914,2.69c.173-.335.156-.335-.728-.035-1.474.53-1.682.459-.954-.335A5.143,5.143,0,0,0,23.411.43c0-.053-.26.035-.555.194a9.627,9.627,0,0,1-1.526.6l-.936.3-.85-.583A7.037,7.037,0,0,0,18.07.165a5.877,5.877,0,0,0-3.035.071A5.054,5.054,0,0,0,11.653,5.32Z" fill="#2d2d2f"/>
</svg>
